# xmcd CD database file
#
# Track frame offsets:
#	150
#	25856
#	32266
#	45111
#	58390
#	76023
#	97916
#	109973
#	127696
#	137463
#	160595
#	178059
#	186371
#	204880
#	220411
#	237633
#	251646
#	256820
#
# Disc length: 3724 seconds
#
# Revision: 0
# Processed by: cddbd v1.5.2PL0 Copyright (c) Steve Scherf et al.
# Submitted via: CDex 1.51
#
DISCID=e40e8a12
DTITLE=Andrey Klimkovsky - Музыка Небесных Сфер - II
DYEAR=1997
DGENRE=New Age
TTITLE0=Новолуние - Ночь без Луны
TTITLE1=Новолуние - День Лунного рождения
TTITLE2=Новолуние - Тонкий лунный серп в закатном небе
TTITLE3=Новолуние - Пепельный свет
TTITLE4=Первая четверть - Эквиум
TTITLE5=Первая четверть - Все глубже в ночь
TTITLE6=Первая четверть - Рандеву
TTITLE7=Первая четверть - Голубая Лунная Ночь
TTITLE8=Полнолуние - Полночь
TTITLE9=Полнолуние - Полная Луна
TTITLE10=Полнолуние - Лунное затмение
TTITLE11=Полнолуние - Вновь Полная Луна
TTITLE12=Полнолуние - Обратный путь
TTITLE13=Последняя четверть - Гало
TTITLE14=Последняя четверть - Темные облака
TTITLE15=Последняя четверть - Блуждая в ветвях
TTITLE16=Последняя четверть - Смерть
TTITLE17=Последняя четверть - Ночь без Луны
EXTD=YEAR: 1997
EXTT0=
EXTT1=
EXTT2=
EXTT3=
EXTT4=
EXTT5=
EXTT6=
EXTT7=
EXTT8=
EXTT9=
EXTT10=
EXTT11=
EXTT12=
EXTT13=
EXTT14=
EXTT15=
EXTT16=
EXTT17=
PLAYORDER=
